<?xml version="1.0" encoding="UTF-8"?> <!-- Generator: Adobe Illustrator 23.1.1, SVG Export Plug-In . SVG Version: 6.00 Build 0) --> <svg xmlns="http://www.w3.org/2000/svg" xmlns:xlink="http://www.w3.org/1999/xlink" id="Layer_1" x="0px" y="0px" viewBox="0 0 2834.6 2834.6" style="enable-background:new 0 0 2834.6 2834.6;" xml:space="preserve"> <style type="text/css"> .st0{fill:#FFFFFF;} .st1{enable-background:new ;} </style> <circle cx="1418.1" cy="1418.4" r="693.6"></circle> <g> <g> <path class="st0" d="M1052.9,1759.7h288.6v-346.3c0-36.8,17.9-60.7,28.9-71.6c10-10,30.8-26.9,61.7-26.9 c38.8,0,62.7,26.9,70.7,37.8c46.8,63.7,137.3,78.6,201,31.8c63.7-46.8,78.6-137.3,31.8-201c-71.6-97.5-184.1-156.2-303.5-156.2 c-102.5,0-198,40.8-269.7,115.4c-70.7,72.6-109.5,169.2-109.5,271.7L1052.9,1759.7z"></path> </g> </g> <g class="st1"> <path class="st0" d="M1702.7,1048.9h-16.6v-10.2h44.9v10.2h-16.5v41.1h-11.7V1048.9z"></path> <path class="st0" d="M1738.4,1038.7h11l13.4,24.1l13.1-24.1h11.1l2.4,51.3h-11.6l-1.5-33.5l-10.6,20h-6l-11.2-19.8l-1.3,33.3H1736 L1738.4,1038.7z"></path> </g> <circle class="st0" cx="1623.1" cy="1627.4" r="143.3"></circle> </svg> 